<?xml version="1.0" encoding="utf-8"?>
<!-- Generator: Adobe Illustrator 19.1.0, SVG Export Plug-In . SVG Version: 6.00 Build 0)  -->
<svg version="1.1" id="Layer_1" xmlns="http://www.w3.org/2000/svg" xmlns:xlink="http://www.w3.org/1999/xlink" x="0px" y="0px"
	 viewBox="0 0 63 72" style="enable-background:new 0 0 63 72;" xml:space="preserve">
<style type="text/css">
	.st0{fill:#FFD400;}
</style>
<path class="st0" d="M60.7,31.9L5.7,0.1C5.5,0,5.3,0,5.2,0.1L2.3,1.8C0.9,2.6,0,4.1,0,5.7v63.5c0,0.2,0.1,0.4,0.3,0.4l2.9,1.7
	c0,0,0,0,0,0C3.8,71.8,4.6,72,5.4,72c0.8,0,1.6-0.2,2.3-0.6l55-31.8c0.2-0.1,0.3-0.3,0.3-0.4v-3.3C63,34.2,62.1,32.7,60.7,31.9z
	 M10.9,15.6l3.9,2.2v36.9L10.9,57V15.6z M15.3,17l-4.4-2.5V9.9l8.3,4.8L15.3,17z M25.6,24.1l3.9,2.2v19.9l-3.9,2.2V24.1z M30,25.5
	l-4.4-2.5v-4.5l8.3,4.8L30,25.5z M40.3,32.6l6.4,3.7L40.3,40V32.6z M1,5.7c0-1.3,0.7-2.5,1.8-3.1l2.1-1.2v59.3
	c0,0.2,0.1,0.4,0.3,0.4c0.1,0,0.2,0.1,0.3,0.1s0.2,0,0.3-0.1l4.9-2.8l4.9-2.8c0.2-0.1,0.3-0.3,0.3-0.4V17.9l3.9-2.2v36.6
	c0,0,0,0,0,0c0,0.1,0,0.2,0.1,0.2c0,0,0,0,0,0c0,0.1,0.1,0.1,0.2,0.2c0,0,0,0,0,0c0.1,0,0.2,0.1,0.2,0.1c0,0,0,0,0,0l0,0
	c0.1,0,0.2,0,0.3-0.1l4.9-2.8l4.9-2.8c0.2-0.1,0.3-0.3,0.3-0.4V26.4l3.9-2.2v19.6c0,0,0,0,0,0c0,0.1,0,0.2,0.1,0.2
	c0,0.1,0.1,0.1,0.2,0.2c0,0,0,0,0,0c0,0,0,0,0,0c0.1,0,0.1,0,0.2,0c0,0,0,0,0.1,0c0.1,0,0.2,0,0.2-0.1l12.6-7.3l3.9,2.2L1,68.4V5.7z
	 M7.2,70.5c-1.1,0.6-2.5,0.6-3.6,0l-2.1-1.2l51.4-29.7c0.2-0.1,0.3-0.3,0.3-0.4c0-0.2-0.1-0.4-0.3-0.4L48,35.9h0l-7.6-4.4V27
	l21.1,12.2L7.2,70.5z"/>
</svg>
