<?xml version="1.0" encoding="UTF-8" standalone="no"?>
<svg width="50px" height="57px" viewBox="0 0 50 57" version="1.1" xmlns="http://www.w3.org/2000/svg" xmlns:xlink="http://www.w3.org/1999/xlink">
    <!-- Generator: Sketch 43.2 (39069) - http://www.bohemiancoding.com/sketch -->
    <title>artifact-yellow</title>
    <desc>Created with Sketch.</desc>
    <defs></defs>
    <g id="Page-1" stroke="none" stroke-width="1" fill="none" fill-rule="evenodd">
        <g id="artifact-yellow" fill-rule="nonzero" fill="#FFCF2B">
            <path d="M48,24.9 L5,0.1 C4.9,0.1 4.8,0 4.6,0 C4.5,0 4.3,0 4.2,0.1 L2,1.4 C0.8,2.1 0,3.4 0,4.8 L0,54.4 C0,54.6 0.1,54.7 0.1,54.8 C0.2,54.9 0.2,55 0.3,55 L2.5,56.3 C3.1,56.7 3.8,56.8 4.5,56.8 C5.2,56.8 5.9,56.6 6.5,56.3 L49.5,31.5 L49.6,31.4 C49.8,31.3 49.9,31.1 49.9,30.8 L49.9,28.2 C50,27 49.2,25.6 48,24.9 Z M48.4,28.4 L48.4,29.6 L45,27.7 L31.9,20.1 C31.7,20 31.4,20 31.1,20.1 C30.9,20.2 30.7,20.5 30.7,20.8 L30.7,25.2 L30.7,25.2 L30.7,31.9 L28.8,33 L28.4,33.2 L28.4,18.5 L28.4,18.4 L28.4,18.3 L28.4,18.2 L28.4,18.2 L28.4,18.2 C28.3,18.1 28.2,18 28.1,17.9 L28.1,17.9 L28.1,17.9 L28.1,17.9 L20.4,13.5 C20.2,13.4 19.9,13.4 19.6,13.5 L19.6,13.5 L19.6,13.5 C19.5,13.5 19.5,13.6 19.5,13.6 C19.3,13.7 19.2,13.9 19.2,14.1 L19.2,38.5 L19,38.6 L16.9,39.8 L16.9,11.9 L16.9,11.8 L16.9,11.7 C16.8,11.5 16.7,11.4 16.6,11.3 L16.6,11.3 L8.8,6.8 L8.6,6.8 C8.5,6.8 8.5,6.7 8.4,6.7 C8.3,6.7 8.1,6.7 8,6.8 C8,6.8 8,6.9 7.9,6.9 C7.8,7.1 7.7,7.3 7.7,7.5 L7.7,45.2 L5.4,46.5 L5.4,2.2 L47.2,26.3 C47.9,26.7 48.4,27.5 48.4,28.4 Z M32.3,26.5 L36.1,28.7 L32.3,31 L32.3,26.5 Z M20.8,19.9 L23.1,21.2 L23.1,36.3 L20.8,37.6 L20.8,19.9 Z M23.8,19.9 L20.7,18.1 L20.7,15.5 L26,18.6 L23.8,19.9 Z M9.2,13.2 L11.5,14.5 L11.5,42.9 L9.2,44.2 L9.2,13.2 Z M12.3,13.2 L9.2,11.4 L9.2,8.8 L10.9,9.8 L14.5,11.9 L12.3,13.2 Z M2.8,2.8 L3.9,2.2 L3.9,47.9 C3.9,48.2 4,48.4 4.3,48.6 L4.3,48.6 C4.4,48.7 4.5,48.7 4.6,48.7 C4.7,48.7 4.9,48.7 5,48.6 L8,46.8 L12.7,44.1 C12.9,44 13.1,43.7 13.1,43.4 L13.1,14.6 L15.4,13.3 L15.4,41.2 C15.4,41.5 15.5,41.7 15.8,41.9 L15.8,41.9 C15.9,41.9 16,41.9 16,42 L16.2,42 L16.2,42 L16.3,42 C16.4,42 16.5,42 16.6,41.9 L20.4,39.7 L20.4,39.7 L24.2,37.5 C24.4,37.4 24.6,37.1 24.6,36.8 L24.6,21.2 L26.9,19.9 L26.9,34.5 C26.9,34.6 26.9,34.8 27,34.9 L27,34.9 L27,34.9 C27.1,35 27.2,35.1 27.3,35.2 L27.4,35.2 L27.5,35.2 C27.7,35.2 27.9,35.2 28,35.1 L31.8,32.9 L31.8,32.9 L37.6,29.6 L37.8,29.7 L39.9,30.9 L25.7,39.1 L1.5,53.1 L1.5,4.9 C1.6,4 2,3.2 2.8,2.8 Z M5.8,55.1 C5.1,55.5 4.1,55.5 3.4,55.1 L2.3,54.5 L41.8,31.7 L41.8,31.7 L41.8,31.7 C42,31.6 42.2,31.3 42.2,31 C42.2,30.7 42.1,30.5 41.8,30.3 L38,28.1 L38,28.1 L32.2,24.8 L32.2,22.2 L47.6,31 L5.8,55.1 Z" id="Shape"></path>
        </g>
    </g>
</svg>