<?xml version="1.0" encoding="utf-8"?>
<!-- Generator: Adobe Illustrator 19.1.0, SVG Export Plug-In . SVG Version: 6.00 Build 0)  -->
<svg version="1.1" id="Layer_1" xmlns="http://www.w3.org/2000/svg" xmlns:xlink="http://www.w3.org/1999/xlink" x="0px" y="0px"
	 viewBox="0 0 200 57" style="enable-background:new 0 0 200 57;" xml:space="preserve">
<style type="text/css">
	.st0{fill:#FFFFFF;}
</style>
<g>
	<path class="st0" d="M87.8,45.9l-2.7-9.3H74l-2.7,9.3h-4.5L77,10h5l10.2,35.8H87.8z M84.1,32.5l-4.6-16l-4.6,16H84.1z"/>
	<path class="st0" d="M105.4,21.3v4c-0.2,0-0.5,0-0.8,0c-2.5,0-5.2,2.7-5.2,6.2v14.4h-4.1V21.4h3.9v3.2c0.7-1.5,3-3.4,5.4-3.4
		C104.9,21.2,105.1,21.2,105.4,21.3"/>
	<path class="st0" d="M109.5,21.4l0-8.4h4.2l0,8.4h5.1V25h-5.1l-0.1,13.7c0,2.9,0.9,3.9,2.8,3.9c1,0,1.7-0.2,2.3-0.5v3.6
		c-0.8,0.3-1.9,0.6-3.4,0.6c-3.6,0-5.9-1.9-5.8-6.3l0-14.9V21.4z"/>
	<path class="st0" d="M190.8,21.4l0-8.4h4.2l0,8.4h5.1V25h-5.1l-0.1,13.7c0,2.9,0.9,3.9,2.8,3.9c1,0,1.7-0.2,2.3-0.5v3.6
		c-0.8,0.3-1.9,0.6-3.4,0.6c-3.6,0-5.9-1.9-5.8-6.3l0-14.9V21.4z"/>
	<path class="st0" d="M127.6,12.9c0,1.4-1.2,2.5-2.5,2.5c-1.4,0-2.5-1.1-2.5-2.5c0-1.4,1.2-2.6,2.5-2.6
		C126.5,10.3,127.6,11.5,127.6,12.9 M123,21.4h4.1v24.4H123V21.4z"/>
	<path class="st0" d="M145.7,9.3l-0.6,3.7c-0.6-0.2-1.1-0.4-2-0.4c-2.2,0-3.5,1.2-3.5,4v4.8h4.8V25h-4.8v20.9h-4.1V25h-3.9v-3.5h3.9
		v-4.6c0-5.5,3-7.9,7.2-7.9C143.9,8.9,144.7,9.1,145.7,9.3"/>
	<path class="st0" d="M161.2,24.2v-2.7h3.9v24.4h-3.9v-2.8c-0.9,1.9-2.9,3.3-6,3.3c-4.8,0-8.1-3.6-8.1-9.2v-7c0-5.6,3.3-9.2,8.1-9.2
		C158.4,21,160.4,22.3,161.2,24.2 M151.2,30.3V37c0,3.5,1.8,5.7,4.9,5.7c3.1,0,4.9-2.2,4.9-5.7v-6.7c0-3.4-1.8-5.7-4.9-5.7
		C153,24.6,151.2,26.9,151.2,30.3"/>
	<path class="st0" d="M186.7,30.4h-3.9c-0.1-3.5-1.5-5.8-4.6-5.8c-3,0-4.7,2.3-4.7,5.7V37c0,3.5,1.8,5.7,4.7,5.7
		c3.1,0,4.6-2.3,4.6-5.8h3.9c-0.1,5.7-3.1,9.5-8.6,9.5c-5.3,0-8.8-3.5-8.8-9.2v-7c0-5.6,3.4-9.1,8.8-9.1
		C183.6,21,186.6,24.8,186.7,30.4"/>
	<path class="st0" d="M48,24.9L5,0.1C4.9,0.1,4.8,0,4.6,0c-0.1,0-0.3,0-0.4,0.1L2,1.4c-1.2,0.7-2,2-2,3.4v49.6
		c0,0.2,0.1,0.3,0.1,0.4c0.1,0.1,0.1,0.2,0.2,0.2l2.2,1.3c0.6,0.4,1.3,0.5,2,0.5c0.7,0,1.4-0.2,2-0.5l43-24.8c0,0,0.1-0.1,0.1-0.1
		c0.2-0.1,0.3-0.3,0.3-0.6v-2.6C50,27,49.2,25.6,48,24.9z M48.4,28.4v1.2L45,27.7l-13.1-7.6c-0.2-0.1-0.5-0.1-0.8,0
		c-0.2,0.1-0.4,0.4-0.4,0.7v4.4c0,0,0,0,0,0v6.7L28.8,33l-0.4,0.2V18.5c0,0,0-0.1,0-0.1c0,0,0-0.1,0-0.1c0,0,0-0.1,0-0.1
		c0,0,0,0,0,0c0,0,0,0,0,0c-0.1-0.1-0.2-0.2-0.3-0.3l0,0l0,0c0,0,0,0,0,0l-7.7-4.4c-0.2-0.1-0.5-0.1-0.8,0c0,0,0,0,0,0c0,0,0,0,0,0
		c-0.1,0-0.1,0.1-0.1,0.1c-0.2,0.1-0.3,0.3-0.3,0.5v24.4L19,38.6l-2.1,1.2V11.9c0,0,0-0.1,0-0.1c0,0,0-0.1,0-0.1
		c-0.1-0.2-0.2-0.3-0.3-0.4c0,0,0,0,0,0L8.8,6.8c-0.1,0-0.1,0-0.2,0c-0.1,0-0.1-0.1-0.2-0.1c-0.1,0-0.3,0-0.4,0.1
		C8,6.8,8,6.9,7.9,6.9C7.8,7.1,7.7,7.3,7.7,7.5v37.7l-2.3,1.3V2.2l41.8,24.1C47.9,26.7,48.4,27.5,48.4,28.4z M32.3,26.5l3.8,2.2
		L32.3,31V26.5z M20.8,19.9l2.3,1.3v15.1l-2.3,1.3V19.9z M23.8,19.9l-3.1-1.8v-2.6l5.3,3.1L23.8,19.9z M9.2,13.2l2.3,1.3v28.4
		l-2.3,1.3V13.2z M12.3,13.2l-3.1-1.8V8.8l1.7,1l3.6,2.1L12.3,13.2z M2.8,2.8l1.1-0.6v45.7c0,0.3,0.1,0.5,0.4,0.7c0,0,0,0,0,0
		c0.1,0.1,0.2,0.1,0.3,0.1c0.1,0,0.3,0,0.4-0.1L8,46.8l4.7-2.7c0.2-0.1,0.4-0.4,0.4-0.7V14.6l2.3-1.3v27.9c0,0.3,0.1,0.5,0.4,0.7
		c0,0,0,0,0,0c0.1,0,0.2,0,0.2,0.1c0.1,0,0.1,0,0.2,0c0,0,0,0,0,0c0,0,0.1,0,0.1,0c0.1,0,0.2,0,0.3-0.1l3.8-2.2c0,0,0,0,0,0l3.8-2.2
		c0.2-0.1,0.4-0.4,0.4-0.7V21.2l2.3-1.3v14.6c0,0.1,0,0.3,0.1,0.4c0,0,0,0,0,0c0,0,0,0,0,0c0.1,0.1,0.2,0.2,0.3,0.3c0,0,0.1,0,0.1,0
		c0,0,0.1,0,0.1,0c0.2,0,0.4,0,0.5-0.1l3.8-2.2c0,0,0,0,0,0l5.8-3.3l0.2,0.1l2.1,1.2l-14.2,8.2l-24.2,14V4.9C1.6,4,2,3.2,2.8,2.8z
		 M5.8,55.1c-0.7,0.4-1.7,0.4-2.4,0l-1.1-0.6l39.5-22.8l0,0l0,0c0.2-0.1,0.4-0.4,0.4-0.7c0-0.3-0.1-0.5-0.4-0.7L38,28.1c0,0,0,0,0,0
		l-5.8-3.3v-2.6L47.6,31L5.8,55.1z"/>
</g>
</svg>
