<?xml version="1.0" encoding="UTF-8" standalone="no"?>
<svg width="75px" height="98px" viewBox="0 0 75 98" version="1.1" xmlns="http://www.w3.org/2000/svg" xmlns:xlink="http://www.w3.org/1999/xlink">
    <!-- Generator: Sketch 43.2 (39069) - http://www.bohemiancoding.com/sketch -->
    <title>RBC_Royal_Bank</title>
    <desc>Created with Sketch.</desc>
    <defs></defs>
    <g id="Page-1" stroke="none" stroke-width="1" fill="none" fill-rule="evenodd">
        <g id="RBC_Royal_Bank" fill-rule="nonzero">
            <path d="M74.135625,85.543125 C74.135625,88.7625 72.8175,90.63375 70.239375,91.629375 C60.219375,95.49 48.354375,97.4775 37.070625,97.4775 C25.78125,97.4775 13.91625,95.488125 3.898125,91.629375 C1.32,90.63375 0,88.7625 0,85.543125 L0,0.0225 L74.135625,0.0225 L74.135625,85.543125 Z" id="Shape" fill="#6D838F"></path>
            <path d="M19.8825,52.14 C9.616875,45.73125 6.230625,42.894375 5.938125,38.690625 C5.889375,37.839375 6.084375,36.3975 6.4425,35.37 L5.475,34.72875 C4.7025,35.9625 4.209375,37.584375 4.209375,39.07125 C4.209375,41.50125 4.98375,43.33875 5.938125,44.806875 C7.38,47.026875 8.896875,48.42375 12.635625,51.22875 C16.663125,54.249375 19.411875,57.77625 20.994375,61.47 L21.56625,61.47 L21.56625,57.279375 C27.005625,60.369375 31.805625,63.271875 34.16625,68.465625 L34.73625,68.465625 C33.811875,63.084375 30.766875,58.935 19.8825,52.14" id="Shape" fill="#FFFFFF"></path>
            <path d="M67.16625,68.473125 L66.465,68.473125 C66.465,64.644375 62.953125,63.59625 59.27625,63.59625 L47.77875,63.59625 C48.15,65.48625 48.320625,67.696875 48.0375,69.785625 L47.46375,69.785625 C46.400625,61.175625 41.536875,56.915625 34.734375,52.34625 L34.734375,56.26875 L34.1625,56.26875 C32.353125,52.2225 28.38375,48.43125 24.62625,45.73875 C23.626875,45.02625 22.58625,44.2875 21.560625,43.558125 L21.560625,47.77875 L20.98875,47.77875 C19.395,43.59 16.501875,40.464375 12.375,36.73875 C7.914375,32.72625 6.12,30.324375 5.07375,27.5625 C4.44,25.89 4.26375,24.538125 4.239375,22.7025 C4.2,19.419375 5.863125,16.453125 7.929375,15.346875 L7.929375,16.936875 C6.905625,18.2925 6.375,20.015625 6.37125,21.76125 C6.365625,23.375625 6.751875,25.168125 7.554375,26.694375 C10.065,31.471875 18.52125,37.336875 23.8875,40.9425 C40.584375,52.14 43.918125,54.09375 46.689375,60.035625 C46.99875,60.6975 47.30625,61.58625 47.563125,62.623125 C49.974375,62.25 58.725,60.915 60.335625,60.66 C60.64875,60.609375 61.291875,60.5325 61.625625,60.51 C63.135,59.5575 64.30875,58.3425 65.338125,56.8275 L58.944375,56.330625 C58.6125,57.06375 58.288125,57.6825 58.00125,58.175625 L57.47625,58.175625 C57.6525,57.526875 57.804375,56.885625 57.9375,56.25375 L56.29875,56.1375 L56.29875,55.785 L58.070625,55.565625 C58.408125,53.75625 58.57125,52.0425 58.603125,50.443125 L50.53875,49.98375 C50.499375,50.8125 50.491875,51.590625 50.52,52.31625 L50.00625,52.31625 C49.83,51.51 49.695,50.71125 49.59375,49.933125 L47.8275,49.828125 L47.8275,49.291875 L49.5075,49.2 C49.27125,47.064375 49.25625,45.075 49.340625,43.363125 L44.62875,43.15125 C44.848125,43.5675 45.07875,43.981875 45.24,44.44125 C46.26,47.285625 46.01625,50.615625 45.6825,52.15125 L45.110625,52.15125 C45.02625,50.3775 44.431875,48.200625 43.86375,46.876875 C42.560625,43.80375 39.6375,41.085 34.7325,37.935 L34.7325,41.86125 L34.160625,41.86125 C32.53125,36.705 28.47,33.834375 22.434375,30.735 C17.454375,28.179375 15.9075,25.09875 16.18875,20.3325 L17.8725,21.33 C18.301875,25.785 21.725625,28.36125 25.3125,28.335 C27.42375,28.31625 29.401875,28.035 31.310625,27.65625 C34.070625,27.095625 36.624375,26.625 38.75625,27.376875 L38.75625,24.74625 L37.08,24.74625 C36.48,25.261875 35.265,25.86 33.478125,25.891875 C31.515,25.925625 27.79875,24.795 27.79875,20.641875 C27.79875,17.034375 30.849375,16.456875 33.33375,16.456875 C34.66875,16.456875 36.88125,16.41 37.63125,16.370625 C38.184375,16.333125 38.600625,16.250625 38.8725,15.980625 C39.15375,15.705 39.238125,15.42 39.301875,15.050625 C39.380625,14.6025 39.380625,14.146875 39.380625,13.3725 L39.380625,10.73625 L27.8625,10.73625 L27.8625,15.301875 L23.503125,13.6425 L23.503125,12.549375 L25.588125,12.549375 L25.588125,10.73625 L17.82,10.73625 L17.82,6.94875 L15.1725,6.94875 C13.75875,6.94875 12.125625,7.9425 12.0075,9.864375 C11.900625,11.7075 12.729375,13.261875 14.62875,13.261875 L14.968125,13.261875 L14.968125,15.46875 L14.62875,15.46875 C11.300625,15.46875 8.795625,12.97125 8.795625,9.65625 C8.795625,6.19875 11.7375,3.56625 15.298125,3.56625 L20.915625,3.56625 L20.915625,7.355625 L42.76875,7.355625 L42.76875,12.95625 C42.76875,13.90125 42.714375,15.166875 42.624375,15.965625 C42.556875,16.550625 42.3525,17.59875 41.25,18.4425 C40.580625,18.94875 39.575625,19.153125 37.948125,19.160625 C37.41375,19.1625 35.865,19.138125 34.00875,19.021875 C31.51875,18.8625 30.81,19.82625 30.70875,20.71875 C30.688125,20.90625 30.688125,21.088125 30.7125,21.2625 C31.87875,20.3625 33.52875,19.723125 35.4,20.315625 C38.69625,21.3525 39.639375,21.4425 41.356875,20.094375 L41.53125,20.47875 C41.34375,20.765625 41.015625,21.178125 40.53375,21.54375 L42.125625,21.54375 L42.125625,30.1725 L47.083125,27.19875 L61.003125,27.19875 C61.003125,27.19875 66.883125,30.271875 67.84875,30.778125 C68.70375,31.228125 69.039375,31.771875 69.170625,32.56875 C69.285,33.234375 69.10875,34.078125 68.784375,34.618125 C68.58,34.955625 66.980625,37.575 66.13875,38.97375 C68.503125,41.533125 70.09875,45.114375 70.09875,49.1025 C70.09875,52.7175 68.761875,57.37875 64.4175,60.84375 C66.33,61.47 67.554375,62.5125 68.51625,63.883125 L67.16625,68.473125 Z M36.133125,22.00875 C34.1775,21.579375 33.08625,21.82125 31.963125,22.891875 C32.514375,23.154375 33.2025,23.296875 33.961875,23.24625 C35.0625,23.1675 35.74125,22.51125 36.133125,22.00875 L36.133125,22.00875 Z M35.00625,34.441875 L40.515,31.14 C39.43125,30.605625 38.235,30.2625 36.8175,30.245625 C34.918125,30.211875 31.71375,31.081875 30.166875,31.32375 C30.85875,31.794375 33.315,33.365625 35.00625,34.441875 L35.00625,34.441875 Z M59.593125,34.7925 L60.35625,33.71625 L59.175,32.143125 L59.371875,31.7925 L62.6925,33.583125 L61.966875,35.780625 C62.505,36.039375 62.998125,36.361875 63.6525,36.796875 L65.80125,33.268125 L60.238125,30.361875 L47.95125,30.361875 L37.97625,36.361875 C39.8475,37.663125 41.57625,39.069375 42.800625,40.486875 C45.470625,36.59625 50.1675,34.119375 54.819375,34.119375 C56.34,34.12125 58.11,34.284375 59.593125,34.7925 L59.593125,34.7925 Z M58.59375,48.72 C58.52625,46.884375 58.299375,45.223125 57.99,43.75875 L51.478125,43.464375 C51.03375,45.44625 50.7375,47.379375 50.6025,49.145625 L58.59375,48.72 Z M60.78375,43.888125 C60.991875,45.57 61.018125,47.143125 60.9075,48.59625 L67.359375,48.25875 C67.194375,46.7925 66.77625,45.406875 66.15375,44.135625 L60.78375,43.888125 Z M57.49875,41.776875 C56.82375,39.44625 56.019375,37.828125 55.595625,37.066875 C55.325625,37.05 55.05,37.044375 54.778125,37.044375 C54.3225,37.044375 53.866875,37.1025 53.42625,37.149375 C52.775625,38.77875 52.245,40.423125 51.81375,42.091875 L57.49875,41.776875 Z M59.2875,37.865625 C59.769375,39.16125 60.13125,40.41 60.395625,41.615625 L64.336875,41.4 C62.983125,39.84 61.2525,38.615625 59.2875,37.865625 L59.2875,37.865625 Z M66.541875,54.50625 C67.003125,53.383125 67.2975,52.305 67.385625,50.94 L60.680625,50.559375 C60.375,52.438125 59.87625,54.07125 59.34,55.408125 L66.541875,54.50625 Z M50.00625,38.13 C47.761875,39.135 46.213125,40.501875 44.829375,42.463125 L49.419375,42.223125 C49.584375,40.185 49.8525,38.829375 50.00625,38.13 L50.00625,38.13 Z" id="Shape" fill="#FFFFFF"></path>
            <path d="M41.491875,78.376875 C43.363125,78.073125 45.148125,76.618125 45.148125,74.41875 C45.148125,72.436875 44.304375,70.26 38.469375,70.26 L28.618125,70.26 L28.618125,70.419375 C28.91625,70.51125 29.390625,70.753125 29.7,71.053125 C30.3675,71.71125 30.590625,72.684375 30.616875,73.981875 L30.616875,88.725 L38.77875,88.725 C43.2675,88.725 46.516875,87.016875 46.516875,83.08875 C46.51875,79.899375 44.034375,78.54375 41.491875,78.376875 L41.491875,78.376875 Z M37.291875,72.016875 C39.380625,72.016875 40.79625,72.4725 40.79625,74.7 C40.79625,77.0775 38.900625,77.731875 36.735,77.731875 L34.869375,77.731875 L34.869375,72.016875 L37.291875,72.016875 L37.291875,72.016875 Z M37.50375,86.98125 L34.869375,86.98125 L34.869375,79.44 L37.38375,79.44 C40.8375,79.44 42.16125,80.473125 42.16125,83.05875 C42.159375,85.854375 40.42875,86.98125 37.50375,86.98125 L37.50375,86.98125 Z" id="Shape" fill="#FFFFFF"></path>
            <path d="M21.354375,88.72125 L26.67375,88.72125 L19.8825,80.041875 C22.603125,79.3125 24.64125,77.821875 24.64125,75.11625 C24.64125,71.941875 22.738125,70.258125 17.769375,70.258125 L7.490625,70.258125 L7.490625,70.4175 C7.87125,70.54875 8.293125,70.794375 8.5725,71.06625 C9.290625,71.776875 9.50625,72.860625 9.50625,74.323125 L9.50625,88.72125 L13.771875,88.72125 L13.771875,80.540625 L15.328125,80.540625 L21.354375,88.72125 Z M13.77375,72.016875 L16.644375,72.016875 C19.03875,72.016875 20.2875,72.718125 20.2875,75.256875 C20.2875,77.525625 18.65625,78.871875 16.033125,78.871875 L13.77375,78.871875 L13.77375,72.016875 Z" id="Shape" fill="#FFFFFF"></path>
            <path d="M63.76875,72.79125 C64.906875,73.4325 65.255625,74.281875 65.265,74.289375 C65.3175,74.35125 65.44125,74.330625 65.44125,74.330625 L66.369375,71.17125 C66.369375,71.17125 64.7025,69.973125 60.735,69.973125 C54.73125,69.973125 50.236875,72.9975 50.236875,79.61625 C50.236875,87.073125 55.59,89.01 60.313125,89.01 C64.7025,89.01 66.43125,87.61125 66.43125,87.61125 L66.43125,85.4475 C66.43125,85.4475 64.876875,86.895 61.54875,86.895 C58.805625,86.895 54.766875,85.63875 54.68625,79.51125 C54.60375,73.846875 57.073125,72.00375 60.376875,72.00375 C62.221875,72.00375 63.1425,72.436875 63.76875,72.79125" id="Shape" fill="#FFFFFF"></path>
        </g>
    </g>
</svg>